# xmcd
#
# Track frame offsets: 
#        150
#        16124
#        33222
#        49923
#        67617
#        83501
#        99958
#        114617
#        127541
#        144766
#
# Disc length: 2150 seconds
#
# Revision: 0
# Processed by: cddbd v1.5.2PL0 Copyright (c) Steve Scherf et al.
# Submitted via: ExactAudioCopy v0.95b4
#
DISCID=6208640a
DTITLE=อร อรดี - เรารักอ่างทอง
DYEAR=2006
DGENRE=Country
TTITLE0=เรารักอ่างทอง
TTITLE1=โหลดใจใส่จอ
TTITLE2=ปึ๋งปั๋ง
TTITLE3=แม่สอนเลือกแฟน
TTITLE4=รักหนุ่มลีวายส์
TTITLE5=เกลี'ผู้ชายหลอกลวง
TTITLE6=มองทำไม
TTITLE7=บ้านนี้หมาดุ
TTITLE8=คนหล่อท้ายซอย
TTITLE9=อยากรู้ความรัก
EXTD=
EXTT0=
EXTT1=
EXTT2=
EXTT3=
EXTT4=
EXTT5=
EXTT6=
EXTT7=
EXTT8=
EXTT9=
PLAYORDER=
